<svg width="60" height="67" viewBox="0 0 60 67" fill="none" xmlns="http://www.w3.org/2000/svg">
<path d="M59.2963 9.04339L43.9974 17.8782L28.6901 9.04339L43.9974 0.200073L59.2963 9.04339Z" fill="#E9C79B"/>
<path d="M55.7487 9.04336L43.9974 15.823L32.2461 9.04336L43.9974 2.25525L55.7487 9.04336Z" fill="#ECECD1"/>
<path d="M46.0443 14.6376L45.6009 14.8935L33.8496 8.11386L34.2931 7.85803L46.0443 14.6376Z" fill="#E9C79B"/>
<path d="M48.0573 13.4778L47.6053 13.7422L35.854 6.95407L36.306 6.69824L48.0573 13.4778Z" fill="#E9C79B"/>
<path d="M50.0613 12.3267L49.6179 12.5825L37.8666 5.7944L38.31 5.53857L50.0613 12.3267Z" fill="#E9C79B"/>
<path d="M52.0656 11.1669L51.6221 11.4227L39.8708 4.63461L40.3143 4.37878L52.0656 11.1669Z" fill="#E9C79B"/>
<path d="M54.0777 10.0071L53.6257 10.2629L41.8744 3.47482L42.3264 3.21899L54.0777 10.0071Z" fill="#E9C79B"/>
<path d="M59.3048 42.5064L43.9974 51.3497V17.8781L59.3048 9.03479V42.5064Z" fill="#966E3A"/>
<path d="M57.9917 41.7219L45.3109 49.0388V18.6542L57.9917 11.3374V41.7219Z" fill="#BA9970"/>
<path d="M47.3238 47.8876L46.8804 48.1434V17.7589L47.3238 17.5031V47.8876Z" fill="#856236"/>
<path d="M49.1402 46.8301L48.6968 47.0859V16.7099L49.1402 16.4456V46.8301Z" fill="#856236"/>
<path d="M50.9642 45.781L50.5208 46.0368V15.6523L50.9642 15.3965V45.781Z" fill="#856236"/>
<path d="M52.7894 44.7323L52.3374 44.9881V14.6036L52.7809 14.3478L52.7894 44.7323Z" fill="#856236"/>
<path d="M54.6063 43.6748L54.1628 43.9392V13.5546L54.6063 13.2903V43.6748Z" fill="#856236"/>
<path d="M56.4312 42.6259L55.9792 42.8817V12.4972L56.4312 12.2413V42.6259Z" fill="#856236"/>
<path d="M57.9917 27.114L45.3109 34.4309V32.3672L57.9917 25.0503V27.114Z" fill="#856236"/>
<path d="M57.9917 25.0501L45.3109 20.8033V18.6543L57.9917 22.9097V25.0501Z" fill="#A1763F"/>
<path d="M57.9917 41.7219L45.3109 36.5797V34.4307L57.9917 39.5815V41.7219Z" fill="#A1763F"/>
<path d="M43.9983 51.3497L28.6824 42.5064V9.03479L43.9983 17.8781V51.3497Z" fill="#C8A06C"/>
<path d="M42.676 49.0388L30.0037 41.7219V11.3374L42.676 18.6542V49.0388Z" fill="#ECCBA3"/>
<path d="M32.0074 42.8817L31.564 42.6259V12.2413L32.0074 12.4972V42.8817Z" fill="#B79468"/>
<path d="M33.8321 43.9392L33.3801 43.6748V13.2903L33.8321 13.5546V43.9392Z" fill="#B79468"/>
<path d="M35.6492 44.9881L35.2058 44.7323V14.3478L35.6492 14.6036V44.9881Z" fill="#B79468"/>
<path d="M37.4747 46.0368L37.0312 45.781V15.3965L37.4747 15.6523V46.0368Z" fill="#B79468"/>
<path d="M39.2909 47.0859L38.8474 46.8301V16.4456L39.2909 16.7099V47.0859Z" fill="#B79468"/>
<path d="M41.1154 48.1434L40.672 47.8876V17.5031L41.1154 17.7589V48.1434Z" fill="#B79468"/>
<path d="M42.676 34.4309L30.0037 27.114V25.0503L42.676 32.3672V34.4309Z" fill="#B79468"/>
<path d="M31.2061 29.7487L15.8987 38.5835L0.599854 29.7487L15.8987 20.9054L31.2061 29.7487Z" fill="#E9C79B"/>
<path d="M27.6503 29.7488L15.899 36.5284L4.14771 29.7488L15.899 22.9607L27.6503 29.7488Z" fill="#ECECD1"/>
<path d="M17.9545 35.3429L17.5111 35.6073L5.75122 28.8192L6.20319 28.5634L17.9545 35.3429Z" fill="#E9C79B"/>
<path d="M19.9583 34.1832L19.5148 34.4475L7.76355 27.6594L8.207 27.4036L19.9583 34.1832Z" fill="#E9C79B"/>
<path d="M21.9701 33.0319L21.5181 33.2877L9.76685 26.4996L10.2103 26.2438L21.9701 33.0319Z" fill="#E9C79B"/>
<path d="M23.9747 31.8722L23.5313 32.1281L11.7715 25.34L12.2235 25.0841L23.9747 31.8722Z" fill="#E9C79B"/>
<path d="M25.9788 30.7124L25.5353 30.9683L13.7841 24.1801L14.2275 23.9243L25.9788 30.7124Z" fill="#E9C79B"/>
<path d="M15.8987 56.2533L0.599854 47.4185V29.7489L15.8987 38.5837V56.2533Z" fill="#B79468"/>
<path d="M14.1247 53.1747L2.37341 46.3951V32.8188L14.1247 39.607V53.1747Z" fill="#ECCBA3"/>
<path d="M4.42841 47.5804L3.97644 47.316V33.7483L4.42841 34.0041V47.5804Z" fill="#B79468"/>
<path d="M6.43283 48.7402L5.98938 48.4758V34.9081L6.43283 35.1639V48.7402Z" fill="#B79468"/>
<path d="M8.4371 49.8914L7.99365 49.6356V36.0679L8.4371 36.3237V49.8914Z" fill="#B79468"/>
<path d="M10.45 51.0512L9.99805 50.7954V37.2277L10.45 37.4835V51.0512Z" fill="#B79468"/>
<path d="M12.4538 52.2109L12.0104 51.955V38.3788L12.4538 38.6431V52.2109Z" fill="#B79468"/>
<path d="M14.1247 53.1747L2.37341 34.9678V32.8188L14.1247 51.0342V53.1747Z" fill="#C8A06C"/>
<path d="M31.2057 47.4185L15.8983 56.2533V38.5837L31.2057 29.7489V47.4185Z" fill="#856236"/>
<path d="M29.4326 46.3951L17.6727 53.1747V39.607L29.4326 32.8188V46.3951Z" fill="#BA9970"/>
<path d="M19.7274 51.9893L19.2839 52.2537V38.6775L19.7274 38.4216V51.9893Z" fill="#856236"/>
<path d="M21.7405 50.8296L21.2886 51.0939V37.5177L21.732 37.2618L21.7405 50.8296Z" fill="#856236"/>
<path d="M23.7445 49.6784L23.301 49.9342V36.358L23.7445 36.1022V49.6784Z" fill="#856236"/>
<path d="M25.7479 48.5186L25.3044 48.7745V35.2067L25.7479 34.9424V48.5186Z" fill="#856236"/>
<path d="M27.7608 47.3586L27.3088 47.6144V34.0467L27.7608 33.7823V47.3586Z" fill="#856236"/>
<path d="M29.4326 46.3949L17.6727 41.7558V39.6068L29.4326 44.2459V46.3949Z" fill="#966E3A"/>
<path d="M49.1313 24.308L33.8324 33.1428L18.525 24.308L33.8324 15.4733L49.1313 24.308Z" fill="#E9C79B"/>
<path d="M45.5846 24.3081L33.8333 31.0963L22.082 24.3081L33.8333 17.5286L45.5846 24.3081Z" fill="#ECECD1"/>
<path d="M35.8799 29.9108L35.4365 30.1666L23.6852 23.3785L24.1286 23.1227L35.8799 29.9108Z" fill="#E9C79B"/>
<path d="M37.892 28.7512L37.4485 29.007L25.6887 22.2274L26.1407 21.963L37.892 28.7512Z" fill="#E9C79B"/>
<path d="M39.8959 27.5914L39.4525 27.8472L27.7012 21.0676L28.1446 20.8118L39.8959 27.5914Z" fill="#E9C79B"/>
<path d="M41.9006 26.4316L41.4571 26.6959L29.7058 19.9078L30.1493 19.652L41.9006 26.4316Z" fill="#E9C79B"/>
<path d="M43.9124 25.2718L43.4689 25.5361L31.7091 18.748L32.1611 18.4922L43.9124 25.2718Z" fill="#E9C79B"/>
<path d="M49.1398 57.7799L33.8324 66.6232V33.1432L49.1398 24.3083V57.7799Z" fill="#966E3A"/>
<path d="M47.8265 56.9951L35.1542 64.312L35.1456 33.9274L47.8265 26.6106V56.9951Z" fill="#BA9970"/>
<path d="M37.1585 63.1523L36.7151 63.4167V33.0322L37.1585 32.7678V63.1523Z" fill="#856236"/>
<path d="M38.9749 62.1033L38.5315 62.3591V31.9746L38.9749 31.7188V62.1033Z" fill="#856236"/>
<path d="M40.8001 61.0545L40.3567 61.3104V30.9259L40.8001 30.67V61.0545Z" fill="#856236"/>
<path d="M42.6252 59.9969L42.1732 60.2613V29.8768L42.6167 29.6124L42.6252 59.9969Z" fill="#856236"/>
<path d="M44.441 58.948L43.9976 59.2038V28.8193L44.441 28.5635V58.948Z" fill="#856236"/>
<path d="M46.2659 57.8991L45.814 58.1549V27.7703L46.2659 27.5145V57.8991Z" fill="#856236"/>
<path d="M47.8265 42.3872L35.1456 49.7041V47.6403L47.8265 40.3235V42.3872Z" fill="#856236"/>
<path d="M47.8265 40.3233L35.1456 36.0765V33.9275L47.8265 38.1743V40.3233Z" fill="#A1763F"/>
<path d="M47.8265 56.9954L35.1456 51.8446V49.7041L47.8265 54.8549V56.9954Z" fill="#A1763F"/>
<path d="M33.833 66.6232L18.5171 57.7799V24.3083L33.833 33.1432V66.6232Z" fill="#C8A06C"/>
<path d="M32.5107 64.312L19.8384 56.9951V26.6106L32.5107 33.9274V64.312Z" fill="#ECCBA3"/>
<path d="M21.8432 58.1549L21.3998 57.8991V27.5145L21.8432 27.7703V58.1549Z" fill="#B79468"/>
<path d="M23.6682 59.2038L23.2162 58.948V28.5635L23.6682 28.8193V59.2038Z" fill="#B79468"/>
<path d="M25.4837 60.2613L25.0403 59.9969V29.6124L25.4837 29.8768V60.2613Z" fill="#B79468"/>
<path d="M27.3096 61.3104L26.8662 61.0545V30.67L27.3096 30.9259V61.3104Z" fill="#B79468"/>
<path d="M29.1258 62.3591L28.6824 62.1033V31.7188L29.1258 31.9746V62.3591Z" fill="#B79468"/>
<path d="M30.9502 63.4167L30.5067 63.1523V32.7678L30.9502 33.0322V63.4167Z" fill="#B79468"/>
<path d="M32.5107 49.7041L19.8384 42.3872V40.3235L32.5107 47.6403V49.7041Z" fill="#B79468"/>
</svg>
