<svg width="56" height="56" viewBox="0 0 56 56" fill="none" xmlns="http://www.w3.org/2000/svg">
<path d="M51.1981 30.36C51.1981 31.9168 50.239 33.7707 48.9584 34.8104C48.7699 34.9644 48.5759 35.1019 48.3708 35.2175C47.5226 35.7015 46.7686 35.7071 46.2475 35.3275C45.8096 35.0084 45.5435 34.4143 45.5435 33.5946C45.5435 32.698 45.8595 31.7078 46.3695 30.8331C46.8795 29.9529 47.5891 29.1882 48.3652 28.7372C49.0804 28.3301 49.729 28.2586 50.228 28.4786C50.8211 28.7372 51.1981 29.3918 51.1981 30.36Z" fill="#3C3C3B"/>
<path d="M50.3688 28.5499L46.3745 35.4148L48.3717 36.559L52.366 29.6942L50.3688 28.5499Z" fill="#3C3C3B"/>
<path d="M50.3717 36.3672C50.5713 36.2517 50.7709 36.1142 50.9594 35.9602C52.24 34.9205 53.199 33.0666 53.199 31.5098C53.199 30.5416 52.8276 29.887 52.2344 29.6284C51.7355 29.4139 51.0869 29.4799 50.3717 29.887C49.59 30.3325 48.886 31.1027 48.376 31.9829C47.8659 32.863 47.5499 33.8532 47.5499 34.7444C47.5499 35.5641 47.816 36.1527 48.254 36.4773C48.764 36.8568 49.5235 36.8513 50.3717 36.3672ZM50.3717 35.168C49.3849 35.7346 48.5866 35.2725 48.5866 34.1448C48.5866 33.0171 49.3849 31.6418 50.3717 31.0807C51.3585 30.5141 52.1568 30.9762 52.1568 32.1039C52.1513 33.2316 51.353 34.6069 50.3717 35.168Z" fill="#706F6F"/>
<path d="M50.372 35.168C51.3588 34.6014 52.1571 33.2316 52.1571 32.1039C52.1571 30.9762 51.3588 30.5196 50.372 31.0807C49.3852 31.6473 48.5869 33.0171 48.5869 34.1448C48.5869 35.278 49.3852 35.7346 50.372 35.168ZM50.372 34.5299C49.6957 34.9149 49.1468 34.6014 49.1468 33.8257C49.1468 33.0501 49.6957 32.1094 50.372 31.7188C51.0484 31.3337 51.5972 31.6473 51.5972 32.4229C51.5972 33.1986 51.0484 34.1448 50.372 34.5299Z" fill="#9D9D9C"/>
<path d="M49.1465 33.8256C49.1465 33.05 49.6953 32.1093 50.3717 31.7187C51.048 31.3336 51.5968 31.6472 51.5968 32.4229C51.5968 33.1985 51.048 34.1392 50.3717 34.5298C49.6898 34.9204 49.1465 34.6013 49.1465 33.8256Z" fill="#EDEDED"/>
<path d="M44.9501 33.9468C44.9501 35.5036 43.991 37.3575 42.7104 38.3972C42.5219 38.5512 42.3279 38.6887 42.1227 38.8042C41.2745 39.2883 40.5206 39.2938 39.9995 38.9143C39.5615 38.5952 39.2954 38.0011 39.2954 37.1814C39.2954 36.2847 39.6114 35.2945 40.1214 34.4199C40.6315 33.5397 41.3411 32.775 42.1172 32.324C42.8323 31.9169 43.481 31.8454 43.9799 32.0654C44.5731 32.324 44.9501 32.9786 44.9501 33.9468Z" fill="#3C3C3B"/>
<path d="M44.1193 32.133L40.125 38.9978L42.1222 40.142L46.1165 33.2772L44.1193 32.133Z" fill="#3C3C3B"/>
<path d="M44.1237 39.9485C44.3232 39.833 44.5228 39.6955 44.7113 39.5415C45.9919 38.4963 46.951 36.6479 46.951 35.0911C46.951 34.1229 46.5796 33.4683 45.9864 33.2097C45.4874 32.9952 44.8388 33.0612 44.1237 33.4683C43.342 33.9138 42.6379 34.684 42.1279 35.5642C41.6179 36.4443 41.3019 37.4345 41.3019 38.3257C41.3019 39.1454 41.568 39.734 42.0059 40.0586C42.516 40.4381 43.2755 40.4326 44.1237 39.9485ZM44.1237 38.7548C43.1369 39.3214 42.3386 38.8593 42.3386 37.7316C42.3386 36.6039 43.1369 35.2286 44.1237 34.6675C45.1105 34.1009 45.9088 34.563 45.9088 35.6907C45.9032 36.8184 45.1049 38.1882 44.1237 38.7548Z" fill="#706F6F"/>
<path d="M44.1243 38.7547C45.1111 38.188 45.9094 36.8183 45.9094 35.6905C45.9094 34.5628 45.1111 34.1062 44.1243 34.6673C43.1375 35.234 42.3392 36.6037 42.3392 37.7315C42.3392 38.8592 43.1375 39.3213 44.1243 38.7547ZM44.1243 38.1165C43.448 38.5016 42.8992 38.188 42.8992 37.4124C42.8992 36.6367 43.448 35.6961 44.1243 35.3055C44.8007 34.9204 45.3495 35.234 45.3495 36.0096C45.3495 36.7853 44.8007 37.726 44.1243 38.1165Z" fill="#9D9D9C"/>
<path d="M42.8989 37.4123C42.8989 36.6367 43.4478 35.696 44.1241 35.3054C44.8004 34.9203 45.3493 35.2339 45.3493 36.0095C45.3493 36.7852 44.8004 37.7259 44.1241 38.1164C43.4478 38.5015 42.8989 38.188 42.8989 37.4123Z" fill="#EDEDED"/>
<path d="M54.3576 26.8777L28.5513 41.6591V46.4231L40.6312 39.5027C40.6312 37.5553 42.0171 35.1733 43.7135 34.2051L50.4714 30.3324C52.1678 29.3587 53.5537 30.1508 53.5537 32.1037L54.3631 31.6416V26.8777H54.3576Z" fill="#E6B807"/>
<path d="M22.908 38.4302L28.5515 41.6593V46.4288L22.908 43.1941V38.4302Z" fill="#C2800B"/>
<path d="M29.8432 24.6939V42.4405L13.1786 32.8961V15.1495L29.8432 24.6939Z" fill="#E6D7BF"/>
<path d="M55.4995 9.9895V27.736L29.8429 42.4405V24.6939L55.4995 9.9895Z" fill="#D4C6B0"/>
<path d="M29.8432 33.567V42.4403L13.1786 32.8959V24.0171L29.8432 33.567Z" fill="#090665"/>
<path d="M55.4995 18.8682V27.7359L29.8429 42.4404V33.5671L55.4995 18.8682Z" fill="#080490"/>
<path d="M38.7856 0.500122L13.1289 15.1991L29.8434 24.694L55.5001 9.99502L38.7856 0.500122Z" fill="#F1E2C9"/>
<path d="M43.2866 28.022L43.1979 27.6974C43.0149 27.0373 42.9262 26.4817 42.9262 25.9481C42.9262 25.607 42.9817 25.2604 43.0316 24.9304L43.1757 24.0282L42.3774 24.4848L40.3983 25.618V24.8534V23.6101L39.6166 24.5838L35.054 30.2444L34.5496 30.8716L35.359 30.9486L39.9215 31.3832L40.4038 31.4272V30.9486V29.6778L42.9983 28.1925L43.2866 28.022Z" fill="#D4C6B0"/>
<path d="M51.2476 21.1071C51.2476 23.8576 49.3017 27.2023 46.9013 28.5776C44.5008 29.9529 42.5549 28.8361 42.5549 26.0856C42.5549 23.335 44.5008 19.9904 46.9013 18.6151C49.3017 17.2453 51.2476 18.3565 51.2476 21.1071Z" fill="#D4C6B0"/>
<path d="M42.7709 27.8131C42.6046 27.2135 42.4826 26.5919 42.4826 25.9482C42.4826 25.5742 42.538 25.2166 42.5935 24.859L39.9546 26.3718V24.848L35.3921 30.5087L39.9546 30.9432V29.4194L42.7709 27.8131Z" fill="#080490"/>
<path d="M47.1008 27.1639V28.1321C47.439 27.8515 47.7605 27.3674 48.0377 26.7073C47.7328 26.8338 47.4224 26.9878 47.1008 27.1639Z" fill="#080490"/>
<path d="M47.1008 26.8063C47.4723 26.6028 47.8437 26.4322 48.193 26.3002C48.3759 25.7886 48.5256 25.2055 48.6365 24.5948C48.132 24.8259 47.6164 25.0954 47.1008 25.387V26.8063Z" fill="#080490"/>
<path d="M48.7141 21.074C48.1819 21.437 47.6441 21.7781 47.1008 22.0917V23.3844L48.8194 22.3997C48.8139 21.9321 48.7751 21.4866 48.7141 21.074Z" fill="#080490"/>
<path d="M47.1008 25.0349C47.6441 24.7323 48.1819 24.4573 48.6974 24.2262C48.7695 23.7366 48.8083 23.247 48.8194 22.7629L47.1008 23.7476V25.0349Z" fill="#080490"/>
<path d="M48.2373 19.5557C47.8714 19.8362 47.4944 20.0893 47.1008 20.3203V21.7341C47.6164 21.4315 48.1375 21.1015 48.6531 20.7439C48.5533 20.2708 48.4092 19.8637 48.2373 19.5557Z" fill="#080490"/>
<path d="M48.343 19.0882C48.4871 18.9727 48.6257 18.8572 48.7532 18.7417C48.4927 18.6591 48.2099 18.6426 47.905 18.6922C48.0603 18.7802 48.2044 18.9122 48.343 19.0882Z" fill="#080490"/>
<path d="M47.1008 18.9838V19.963C47.4335 19.765 47.7605 19.5449 48.071 19.3084C47.7883 18.9398 47.4556 18.8353 47.1008 18.9838Z" fill="#080490"/>
<path d="M48.9634 24.4517C48.8636 25.0623 48.7194 25.6454 48.5365 26.19C48.6862 26.146 48.8359 26.102 48.98 26.0745C49.3459 25.4639 49.6453 24.7818 49.867 24.0886C49.5676 24.1931 49.2683 24.3142 48.9634 24.4517Z" fill="#080490"/>
<path d="M45.1333 28.5665C45.2996 28.6215 45.4715 28.6491 45.6544 28.6491C45.7653 28.6491 45.8762 28.6381 45.987 28.6215C45.8318 28.5335 45.6821 28.4015 45.5435 28.22C45.4049 28.33 45.2608 28.451 45.1333 28.5665Z" fill="#080490"/>
<path d="M44.9276 22.8508C45.0274 22.2347 45.1715 21.6515 45.36 21.1124C45.2048 21.1619 45.0606 21.2004 44.922 21.2279C44.5561 21.8386 44.2512 22.5207 44.035 23.2083C44.3289 23.1038 44.6282 22.9828 44.9276 22.8508Z" fill="#080490"/>
<path d="M45.2546 22.7025C45.7536 22.4715 46.2691 22.2074 46.7903 21.9104V20.4911C46.4133 20.6946 46.0474 20.8652 45.6981 20.9917C45.5152 21.5143 45.36 22.1029 45.2546 22.7025Z" fill="#080490"/>
<path d="M45.8315 19.9905C45.5986 20.2435 45.3824 20.5241 45.1718 20.8321C45.2771 20.8046 45.388 20.7661 45.4988 20.7276C45.6042 20.4581 45.715 20.2105 45.8315 19.9905Z" fill="#080490"/>
<path d="M45.8594 20.5899C46.1587 20.4689 46.4747 20.3149 46.7907 20.1388V19.1761C46.4526 19.4567 46.131 19.9463 45.8594 20.5899Z" fill="#080490"/>
<path d="M46.7906 28.33V27.3453C46.458 27.5434 46.1365 27.7634 45.8149 28.0055C46.1032 28.3685 46.4303 28.4786 46.7906 28.33Z" fill="#080490"/>
<path d="M45.1771 26.2285C45.7093 25.8655 46.2471 25.5189 46.7904 25.2108V23.9236L45.0718 24.9083C45.0773 25.3759 45.1106 25.8215 45.1771 26.2285Z" fill="#080490"/>
<path d="M46.7904 22.2734C46.2471 22.576 45.7093 22.8511 45.1937 23.0821C45.1217 23.5772 45.0829 24.0668 45.0718 24.5509L46.7904 23.5717V22.2734Z" fill="#080490"/>
<path d="M46.7903 26.9824V25.5686C46.2636 25.8767 45.7425 26.2067 45.238 26.5588C45.3378 27.0374 45.4764 27.4445 45.6538 27.7525C46.0142 27.472 46.3967 27.2134 46.7903 26.9824Z" fill="#080490"/>
<path d="M49.435 18.4941C49.3962 18.5326 49.3574 18.5712 49.3186 18.6097C49.6623 18.8297 49.9561 19.1763 50.1613 19.6164C50.2888 19.5173 50.4052 19.4128 50.5271 19.3138C50.2555 18.9067 49.8785 18.6207 49.435 18.4941Z" fill="#080490"/>
<path d="M49.0024 20.8706C49.0745 21.2942 49.1189 21.7508 49.1244 22.2294L50.2387 21.5912C50.2276 21.0411 50.15 20.546 50.0003 20.1224C49.6732 20.381 49.3406 20.6285 49.0024 20.8706Z" fill="#080490"/>
<path d="M43.6857 23.3352C43.8908 22.6311 44.1846 21.9269 44.545 21.2943C44.5394 21.2943 44.5394 21.2943 44.5339 21.2943C44.0682 21.9544 43.6746 22.6916 43.3918 23.4287C43.4916 23.4012 43.5859 23.3682 43.6857 23.3352Z" fill="#080490"/>
<path d="M49.8838 19.8362C49.6787 19.3961 49.3904 19.0661 49.0412 18.8735C48.8638 19.0331 48.6864 19.1926 48.5034 19.3411C48.6864 19.6602 48.836 20.0618 48.9358 20.5404C49.2685 20.3093 49.5845 20.0728 49.8838 19.8362Z" fill="#080490"/>
<path d="M43.6083 27.4057C43.4476 26.9656 43.3589 26.4595 43.3367 25.8984L42.8655 26.168C42.8766 26.7786 42.993 27.3012 43.2092 27.7358C43.3422 27.6313 43.4698 27.5213 43.6083 27.4057Z" fill="#080490"/>
<path d="M50.5546 21.7674C50.5436 22.356 50.4604 22.9721 50.3052 23.5992C50.4161 23.5662 50.5269 23.5277 50.6378 23.5002C50.8706 22.8126 50.9982 22.1414 51.0259 21.4978L50.5546 21.7674Z" fill="#080490"/>
<path d="M50.2773 19.8967C50.4381 20.3368 50.5324 20.8429 50.549 21.4095L51.0202 21.14C51.0036 20.5238 50.8872 19.9957 50.671 19.5667C50.549 19.6767 50.4159 19.7867 50.2773 19.8967Z" fill="#080490"/>
<path d="M50.2052 23.9675C50.0001 24.6717 49.7063 25.3703 49.3459 26.0084C49.3515 26.0084 49.357 26.0084 49.357 26.0084C49.8227 25.3483 50.2108 24.6167 50.4991 23.874C50.4048 23.9015 50.305 23.9345 50.2052 23.9675Z" fill="#080490"/>
<path d="M43.5862 23.7036C43.4753 23.7366 43.3644 23.7696 43.2535 23.8026C43.0207 24.4958 42.8877 25.1724 42.8655 25.8105L43.3312 25.541C43.3422 24.9524 43.4309 24.3307 43.5862 23.7036Z" fill="#080490"/>
<path d="M44.8834 26.4377C44.8113 26.0197 44.7725 25.5686 44.7614 25.0845L43.6471 25.7226C43.6582 26.2672 43.7358 26.7568 43.8855 27.1804C44.2126 26.9273 44.5452 26.6743 44.8834 26.4377Z" fill="#080490"/>
<path d="M43.7253 27.6919C43.5978 27.7909 43.4813 27.8954 43.3594 28C43.631 28.407 44.0025 28.6876 44.4515 28.8196C44.4903 28.7811 44.5291 28.7426 44.5679 28.6986C44.2242 28.4786 43.9304 28.132 43.7253 27.6919Z" fill="#080490"/>
<path d="M44.002 27.4718C44.2071 27.9064 44.4954 28.242 44.8391 28.44C45.0165 28.2805 45.1939 28.121 45.3824 27.9669C45.1994 27.6479 45.0497 27.2408 44.9444 26.7622C44.6173 26.9933 44.3013 27.2353 44.002 27.4718Z" fill="#080490"/>
<path d="M43.9187 23.5936C43.758 24.1987 43.6637 24.7928 43.6471 25.3649L44.7559 24.7268C44.7614 24.2262 44.8002 23.7201 44.8667 23.2195C44.5452 23.3625 44.2236 23.4835 43.9187 23.5936Z" fill="#080490"/>
<path d="M49.967 23.7091C50.1278 23.104 50.2165 22.5154 50.2387 21.9432L49.1299 22.5814C49.1244 23.0765 49.0856 23.5771 49.019 24.0832C49.3461 23.9401 49.6621 23.8191 49.967 23.7091Z" fill="#080490"/>
<path d="M48.3984 26.5753C48.293 26.8504 48.1766 27.0979 48.0602 27.3235C48.293 27.0704 48.5203 26.7844 48.731 26.4708C48.6201 26.4983 48.5092 26.5368 48.3984 26.5753Z" fill="#080490"/>
<path d="M21.1396 50.7416L18.4231 49.0362V45.9226L21.1396 47.6279V50.7416Z" fill="#575756"/>
<path d="M18.9104 48.8107C18.9104 50.3675 17.9513 52.2213 16.6707 53.2611C16.4822 53.4151 16.2882 53.5526 16.0831 53.6681C15.2349 54.1522 14.4809 54.1577 13.9598 53.7782C13.5218 53.4591 13.2557 52.865 13.2557 52.0453C13.2557 51.1486 13.5717 50.1584 14.0818 49.2838C14.5918 48.4036 15.3014 47.6389 16.0775 47.1878C16.7927 46.7808 17.4413 46.7092 17.9402 46.9293C18.539 47.1823 18.9104 47.837 18.9104 48.8107Z" fill="#3C3C3B"/>
<path d="M18.0816 46.9968L14.0873 53.8617L16.0845 55.0059L20.0788 48.1411L18.0816 46.9968Z" fill="#3C3C3B"/>
<path d="M18.085 54.8123C18.2845 54.6968 18.4841 54.5593 18.6726 54.4052C19.9532 53.3655 20.9123 51.5117 20.9123 49.9548C20.9123 48.9867 20.5409 48.332 19.9477 48.0735C19.4487 47.8589 18.8001 47.9249 18.085 48.332C17.3033 48.7776 16.5992 49.5478 16.0892 50.4279C15.5792 51.3081 15.2632 52.2983 15.2632 53.1895C15.2632 54.0092 15.5293 54.5978 15.9672 54.9223C16.4828 55.3019 17.2368 55.2964 18.085 54.8123ZM18.085 53.6186C17.0982 54.1852 16.2999 53.7231 16.2999 52.5954C16.2999 51.4676 17.0982 50.0924 18.085 49.5313C19.0718 48.9646 19.8701 49.4267 19.8701 50.5545C19.8701 51.6822 19.0718 53.052 18.085 53.6186Z" fill="#706F6F"/>
<path d="M18.0847 53.6188C19.0715 53.0522 19.8698 51.6824 19.8698 50.5547C19.8698 49.427 19.0715 48.9704 18.0847 49.5315C17.0979 50.0981 16.2996 51.4679 16.2996 52.5956C16.2996 53.7233 17.0979 54.1799 18.0847 53.6188ZM18.0847 52.9752C17.4083 53.3602 16.8595 53.0467 16.8595 52.271C16.8595 51.4954 17.4083 50.5547 18.0847 50.1641C18.761 49.779 19.3098 50.0926 19.3098 50.8682C19.3098 51.6439 18.761 52.5901 18.0847 52.9752Z" fill="#9D9D9C"/>
<path d="M16.8599 52.2764C16.8599 51.5008 17.4087 50.5601 18.085 50.1695C18.7614 49.7844 19.3102 50.098 19.3102 50.8737C19.3102 51.6493 18.7614 52.59 18.085 52.9806C17.4087 53.3657 16.8599 53.0521 16.8599 52.2764Z" fill="#EDEDED"/>
<path d="M1.53128 46.0273C1.5978 45.7412 1.66987 45.4551 1.75857 45.1746C1.75857 45.1691 1.75857 45.1581 1.75857 45.1526C1.83619 44.2449 2.25751 43.2327 2.89505 42.413C2.89505 42.413 2.90059 42.413 2.90059 42.4075C3.80423 40.6802 5.03495 39.0354 6.52069 37.451L2.72319 41.4724C1.81401 42.435 1.22083 43.7993 1.22083 44.938V45.8457L1.53128 46.0273Z" fill="#FECB04"/>
<path d="M15.18 28.0771L11.7872 30.019C11.3659 30.2611 10.9556 30.6627 10.6285 31.1468L15.6789 28.3632L15.18 28.0771Z" fill="#FECB04"/>
<path d="M10.5729 31.2236L6.5426 37.4069L10.6284 31.1521C10.6117 31.1741 10.5896 31.2016 10.5729 31.2236Z" fill="#FECB04"/>
<path d="M13.5167 51.985C13.5167 50.8517 14.1098 49.4875 15.019 48.5193L18.8165 44.498L6.50931 37.451C5.02357 39.0354 3.79285 40.6802 2.88921 42.4075C3.03335 42.226 3.29391 42.171 3.49349 42.2865L5.48925 43.4307C5.73318 43.5683 5.79416 43.8873 5.62784 44.1074C5.11782 44.795 4.75193 45.6092 4.60779 46.3793C4.54681 46.6984 4.19755 46.8689 3.91481 46.7039L1.98003 45.5927C1.82481 45.5047 1.74165 45.3396 1.74719 45.1691C1.66404 45.4496 1.58642 45.7357 1.5199 46.0218L13.5056 52.8706V55.1041L13.5167 51.985ZM17.1367 43.9589L13.5943 46.0328C13.0066 46.3793 12.2804 46.3793 11.6872 46.0438L7.19119 43.4913C6.35408 43.0182 6.01037 42.0005 6.38734 41.1203L7.52936 38.4522L17.1367 43.9589ZM5.41718 47.2485C5.38946 47.2485 5.36174 47.243 5.33402 47.2265L5.13999 47.1275C5.07901 47.0945 5.05129 47.0285 5.05683 46.9625C5.1289 46.1208 5.5336 45.1581 6.13233 44.3769C6.16559 44.3329 6.21549 44.3109 6.27092 44.3109C6.29864 44.3109 6.32636 44.3164 6.35408 44.3329L6.6091 44.4704C6.66453 44.5035 6.68116 44.553 6.68671 44.5805C6.69225 44.608 6.6978 44.663 6.65345 44.718C6.1157 45.4441 5.73318 46.2968 5.58349 47.111C5.56686 47.199 5.48925 47.2485 5.41718 47.2485ZM6.39843 47.8096C6.37071 47.8096 6.34299 47.8041 6.31527 47.7876L6.12124 47.6886C6.06026 47.6556 6.03254 47.5896 6.03808 47.5236C6.11015 46.6819 6.51485 45.7192 7.11358 44.938C7.14684 44.894 7.19674 44.872 7.25217 44.872C7.27989 44.872 7.30761 44.8775 7.33533 44.894L7.59035 45.0316C7.64578 45.0646 7.66241 45.1141 7.66796 45.1416C7.6735 45.1691 7.67905 45.2241 7.6347 45.2791C7.09695 46.0053 6.71443 46.8579 6.56474 47.6721C6.55366 47.7601 6.4705 47.8096 6.39843 47.8096ZM7.38523 48.3762C7.35751 48.3762 7.32979 48.3707 7.30207 48.3542L7.10804 48.2552C7.04705 48.2222 7.01934 48.1562 7.02488 48.0902C7.09695 47.2485 7.50164 46.2858 8.10037 45.5047C8.13364 45.4607 8.18353 45.4386 8.23897 45.4386C8.26669 45.4386 8.29441 45.4441 8.32213 45.4606L8.57714 45.5982C8.63258 45.6312 8.64921 45.6807 8.65475 45.7082C8.6603 45.7357 8.66584 45.7907 8.62149 45.8457C8.08374 46.5719 7.70122 47.4245 7.55154 48.2387C7.53491 48.3267 7.45729 48.3762 7.38523 48.3762ZM8.36648 48.9373C8.33876 48.9373 8.31104 48.9318 8.28332 48.9153L8.08929 48.8163C8.02831 48.7833 8.00059 48.7173 8.00613 48.6513C8.0782 47.8096 8.48289 46.8469 9.08162 46.0658C9.11489 46.0218 9.16478 45.9998 9.22022 45.9998C9.24794 45.9998 9.27566 46.0053 9.30338 46.0218L9.55839 46.1593C9.61383 46.1923 9.63046 46.2418 9.636 46.2693C9.64709 46.2913 9.64709 46.3463 9.60828 46.4013C9.07054 47.1275 8.68802 47.9802 8.53833 48.7943C8.51616 48.8878 8.43855 48.9373 8.36648 48.9373ZM9.35327 49.504C9.32555 49.504 9.29783 49.4985 9.27011 49.482L9.07608 49.3829C9.02064 49.3499 8.98738 49.2839 8.99292 49.2179C9.06499 48.3762 9.46969 47.4135 10.0684 46.6324C10.1017 46.5884 10.1516 46.5664 10.207 46.5664C10.2347 46.5664 10.2625 46.5719 10.2902 46.5884L10.5452 46.7259C10.6006 46.7589 10.6173 46.8084 10.6228 46.8359C10.6283 46.8634 10.6339 46.9184 10.5895 46.9735C10.0518 47.6996 9.66927 48.5523 9.51958 49.3664C9.50295 49.4544 9.4198 49.504 9.35327 49.504ZM12.1861 51.4073L10.2514 50.2961C10.0906 50.2026 10.0019 50.0321 10.0185 49.8505C10.0961 48.9428 10.5175 47.9306 11.155 47.111C11.2991 46.9239 11.5597 46.8689 11.7648 46.99L13.7606 48.1342C14.0045 48.2717 14.0655 48.5908 13.8992 48.8108C13.3891 49.4985 13.0233 50.3126 12.8791 51.0828C12.8237 51.4018 12.4689 51.5724 12.1861 51.4073Z" fill="#FECB04"/>
<path d="M18.8169 44.4979L22.875 38.2707C22.8916 38.2431 22.9138 38.2211 22.9304 38.1936L10.6232 31.1467L6.54298 37.407L6.51526 37.451L18.8169 44.4979ZM10.8228 31.9444L22.0878 38.3972L18.6284 43.7002L7.35791 37.2474L10.8228 31.9444Z" fill="#E6B807"/>
<path d="M18.6228 43.7002L22.0876 38.3971L10.8227 31.9443L7.35779 37.2474L18.6228 43.7002Z" fill="#9FFFFF"/>
<path d="M22.9356 38.1991C23.2682 37.715 23.6729 37.3134 24.0998 37.0714L27.4926 35.1295L15.6843 28.3632L10.6339 31.1467L22.9356 38.1991Z" fill="#FECB04"/>
<path d="M27.4873 35.1294L24.0945 37.0713C23.6732 37.3133 23.2629 37.7149 22.9303 38.199C22.9137 38.2265 22.8915 38.2485 22.8749 38.276L18.8168 44.5033L15.0193 48.5246C14.1102 49.4873 13.517 50.8515 13.517 51.9903V55.1094L14.8807 54.3282V54.2347V53.305C14.8807 52.942 14.9306 52.5624 15.0193 52.1773C15.3242 50.868 16.1059 49.5203 17.0983 48.6016C17.3865 48.3375 17.6914 48.1065 18.013 47.9194C18.4177 47.6884 18.8002 47.5564 19.155 47.5124C20.3192 47.3693 21.1397 48.1945 21.1397 49.7073V50.7305L27.9918 46.8082V46.2141L21.5943 49.8778C21.6054 49.7293 21.6164 49.5808 21.6164 49.4378C21.6164 47.5894 20.552 46.6322 19.0885 46.9403V44.8553L19.094 44.8498L23.2131 38.5346C23.4625 38.155 23.773 37.8469 24.0945 37.6599L27.9918 35.4265V35.41L27.4873 35.1294Z" fill="#E6B807"/>
<path d="M23.2128 38.54L19.0938 44.8553L19.0883 44.8608V46.9457C20.5518 46.6321 21.6162 47.5893 21.6162 49.4432C21.6162 49.5862 21.6051 49.7347 21.594 49.8833L27.9916 46.2195V35.4319L24.0943 37.6653C23.7728 37.8469 23.4568 38.1604 23.2128 38.54ZM26.4171 40.5424L20.0196 44.2061L23.5399 38.8041C23.6951 38.5675 23.8892 38.375 24.0888 38.2594L26.4116 36.9282V40.5424H26.4171Z" fill="#FECB04"/>
<path d="M26.4168 36.9282L24.0939 38.2595C23.8943 38.375 23.6948 38.5676 23.5451 38.8041L20.0248 44.2062L26.4223 40.5424V36.9282H26.4168Z" fill="#9FFFFF"/>
<path d="M13.5164 52.8761L1.53078 46.0272L1.20924 45.8457L0.499634 46.2363L12.8068 53.2667V55.5001L13.5164 55.1041V52.8761Z" fill="#EDEDED"/>
<path d="M12.8068 53.2665L0.499634 46.2361V48.4695L12.8068 55.4999V53.2665Z" fill="#C6C6C6"/>
<path d="M13.7608 48.1342L11.765 46.99C11.5599 46.8745 11.2993 46.924 11.1552 47.111C10.5177 47.9307 10.0963 48.9429 10.0187 49.8506C10.0021 50.0321 10.0908 50.2081 10.2515 50.2961L12.1863 51.4074C12.4691 51.5724 12.8239 51.4019 12.8793 51.0828C13.0234 50.3126 13.3838 49.504 13.8994 48.8109C14.0657 48.5908 14.0047 48.2717 13.7608 48.1342ZM13.6554 48.6348C13.5335 48.8053 13.4171 48.9759 13.3117 49.1574C13.284 49.2069 13.2563 49.2509 13.2341 49.3004C13.1565 49.4325 13.09 49.57 13.0234 49.7075C12.9957 49.768 12.968 49.8231 12.9458 49.8836C12.8904 50.0156 12.835 50.1531 12.7906 50.2906C12.774 50.3457 12.7518 50.4062 12.7296 50.4612C12.6686 50.6537 12.6187 50.8408 12.5855 51.0333C12.5689 51.1268 12.4857 51.1818 12.4192 51.1818C12.3915 51.1818 12.3637 51.1763 12.336 51.1598L10.4012 50.0486C10.3402 50.0156 10.3125 49.9496 10.3181 49.8836C10.3901 49.0419 10.7948 48.0792 11.3936 47.298C11.4268 47.254 11.4767 47.232 11.5322 47.232C11.5599 47.232 11.5876 47.2375 11.6153 47.254L12.9347 48.0077L13.6111 48.3928C13.6222 48.3983 13.6277 48.4093 13.6333 48.4148C13.6665 48.4423 13.6832 48.4808 13.6887 48.4973C13.6942 48.5248 13.6998 48.5798 13.6554 48.6348Z" fill="#E6B807"/>
<path d="M12.9459 49.8834C12.8904 50.0154 12.835 50.153 12.7906 50.2905C12.835 50.153 12.8849 50.0154 12.9459 49.8834Z" fill="#EDEDED"/>
<path d="M13.6554 48.6348C13.5279 48.7998 13.417 48.9758 13.3116 49.1574C13.417 48.9813 13.5334 48.8053 13.6554 48.6348Z" fill="#EDEDED"/>
<path d="M13.6332 48.4146C13.6664 48.4476 13.6831 48.4806 13.6886 48.5026C13.6942 48.5301 13.6997 48.5851 13.6609 48.6401C13.6997 48.5851 13.6997 48.5301 13.6942 48.5026C13.6831 48.4751 13.6664 48.4421 13.6332 48.4146Z" fill="#EDEDED"/>
<path d="M13.2337 49.3003C13.1561 49.4323 13.0896 49.5698 13.0231 49.7074C13.0896 49.5698 13.1561 49.4378 13.2337 49.3003Z" fill="#EDEDED"/>
<path d="M11.5265 49.8781C11.3713 49.7956 11.2826 49.625 11.3103 49.449L11.6429 47.2651L12.9347 48.0022L11.6152 47.2486C11.5875 47.2321 11.5598 47.2266 11.5321 47.2266C11.4766 47.2266 11.4267 47.2541 11.3935 47.2926C10.7947 48.0682 10.3901 49.0364 10.318 49.8781C10.3124 49.9496 10.3457 50.0101 10.4011 50.0431L12.3359 51.1543C12.3636 51.1708 12.3914 51.1764 12.4191 51.1764C12.4911 51.1764 12.5688 51.1268 12.5854 51.0278C12.6187 50.8408 12.6686 50.6482 12.7295 50.4557C12.724 50.4722 12.7184 50.4887 12.7129 50.5052L11.5265 49.8781Z" fill="#EDEDED"/>
<path d="M1.75258 45.1526C1.75258 45.1581 1.75258 45.1691 1.75258 45.1746C1.74704 45.3506 1.83019 45.5101 1.98542 45.5981L3.9202 46.7094C4.20293 46.8744 4.55774 46.7039 4.61317 46.3848C4.75731 45.6147 5.11766 44.806 5.63323 44.1129C5.79954 43.8873 5.73856 43.5737 5.49464 43.4362L3.49887 42.292C3.29375 42.1765 3.03874 42.226 2.8946 42.413C2.8946 42.413 2.88906 42.413 2.88906 42.4185C2.25152 43.2327 1.83019 44.2449 1.75258 45.1526ZM3.26603 42.523C3.29375 42.523 3.32147 42.534 3.34919 42.545L3.37691 42.5615L5.34495 43.6838C5.40039 43.7168 5.41702 43.7663 5.42257 43.7938C5.42811 43.8213 5.43365 43.8763 5.39485 43.9313C4.96798 44.5034 4.64089 45.1526 4.4524 45.8017C4.39697 45.9777 4.35816 46.1483 4.3249 46.3243C4.30827 46.4178 4.23065 46.4673 4.15858 46.4673C4.13086 46.4673 4.10315 46.4563 4.07543 46.4453L2.14064 45.3341C2.08521 45.3011 2.05194 45.2406 2.05749 45.1691C2.12956 44.3274 2.52871 43.3592 3.13298 42.5835C3.1607 42.5505 3.2106 42.523 3.26603 42.523Z" fill="#E6B807"/>
<path d="M2.13515 45.3395L4.06993 46.4507C4.09765 46.4672 4.12537 46.4727 4.15309 46.4727C4.22516 46.4727 4.30277 46.4232 4.3194 46.3297C4.35266 46.1592 4.39701 45.9831 4.44691 45.8071L3.26054 45.1745C3.10531 45.092 3.01661 44.9214 3.04433 44.7454L3.37696 42.5615L3.34924 42.5449C3.32706 42.5284 3.2938 42.5229 3.26608 42.5229C3.21064 42.5229 3.16075 42.5505 3.12749 42.589C2.52876 43.3646 2.12406 44.3328 2.05199 45.1745C2.04645 45.246 2.07971 45.312 2.13515 45.3395Z" fill="#EDEDED"/>
<path d="M6.68626 44.5747C6.68072 44.5472 6.66409 44.4977 6.60865 44.4647L6.35363 44.3272C6.32591 44.3107 6.2982 44.3052 6.27048 44.3052C6.21504 44.3052 6.16514 44.3327 6.13188 44.3712C5.53315 45.1468 5.12846 46.115 5.05639 46.9567C5.05084 47.0282 5.08411 47.0887 5.13954 47.1217L5.33358 47.2208C5.36129 47.2373 5.38901 47.2428 5.41673 47.2428C5.4888 47.2428 5.56642 47.1933 5.58305 47.0942C5.73273 46.2801 6.11525 45.4274 6.653 44.7013C6.69735 44.6572 6.6918 44.6022 6.68626 44.5747Z" fill="#3C3C3B"/>
<path d="M7.67369 45.136C7.66814 45.1085 7.65151 45.059 7.59607 45.026L7.34106 44.8885C7.31334 44.872 7.28562 44.8665 7.2579 44.8665C7.20247 44.8665 7.15257 44.894 7.11931 44.9325C6.52058 45.7081 6.11588 46.6763 6.04381 47.518C6.03827 47.5895 6.07153 47.65 6.12697 47.683L6.321 47.782C6.34872 47.7985 6.37644 47.804 6.40416 47.804C6.47623 47.804 6.55384 47.7545 6.57047 47.661C6.72016 46.8469 7.10268 45.9942 7.64042 45.268C7.67923 45.2185 7.67923 45.1635 7.67369 45.136Z" fill="#3C3C3B"/>
<path d="M8.65501 45.7024C8.64947 45.6749 8.63283 45.6254 8.5774 45.5924L8.32238 45.4549C8.29466 45.4384 8.26694 45.4329 8.23923 45.4329C8.18379 45.4329 8.13389 45.4604 8.10063 45.4989C7.5019 46.2745 7.09721 47.2427 7.02514 48.0844C7.01959 48.1559 7.05286 48.2164 7.10829 48.2494L7.30233 48.3484C7.33004 48.3649 7.35776 48.3705 7.38548 48.3705C7.45755 48.3705 7.53516 48.3209 7.5518 48.2219C7.70148 47.4078 8.084 46.5551 8.62175 45.8289C8.6661 45.7849 8.66055 45.7299 8.65501 45.7024Z" fill="#3C3C3B"/>
<path d="M9.64109 46.2638C9.63555 46.2363 9.61892 46.1868 9.56348 46.1538L9.30847 46.0163C9.28075 45.9998 9.25303 45.9943 9.22531 45.9943C9.16987 45.9943 9.11998 46.0218 9.08672 46.0603C8.48799 46.8359 8.08329 47.8041 8.01122 48.6458C8.00568 48.7173 8.03894 48.7778 8.09438 48.8108L8.28841 48.9098C8.31613 48.9264 8.34385 48.9318 8.37157 48.9318C8.44364 48.9318 8.52125 48.8823 8.53788 48.7888C8.68756 47.9747 9.07008 47.122 9.60783 46.3958C9.64664 46.3463 9.64664 46.2913 9.64109 46.2638Z" fill="#3C3C3B"/>
<path d="M10.6227 46.8247C10.6171 46.7972 10.6005 46.7477 10.545 46.7147L10.29 46.5772C10.2623 46.5607 10.2346 46.5552 10.2069 46.5552C10.1514 46.5552 10.1015 46.5827 10.0683 46.6212C9.46955 47.3968 9.06486 48.365 8.99279 49.2067C8.98724 49.2782 9.02051 49.3387 9.07594 49.3717L9.26998 49.4708C9.2977 49.4873 9.32541 49.4928 9.35313 49.4928C9.4252 49.4928 9.50282 49.4433 9.51945 49.3497C9.66913 48.5356 10.0517 47.6829 10.5894 46.9568C10.6337 46.9072 10.6282 46.8522 10.6227 46.8247Z" fill="#3C3C3B"/>
<path d="M6.38742 41.1202C6.01044 42.0004 6.3597 43.0181 7.19127 43.4912L11.6873 46.0437C12.2805 46.3792 13.0067 46.3737 13.5943 46.0327L17.1368 43.9587L7.52944 38.4521L6.38742 41.1202Z" fill="#080490"/>
<path d="M3.04935 44.7508C3.02163 44.9269 3.11033 45.0974 3.26556 45.1799L4.45193 45.8125C4.64596 45.1634 4.97304 44.5143 5.39437 43.9422C5.43318 43.8871 5.42763 43.8321 5.42209 43.8046C5.41655 43.7771 5.39991 43.7276 5.34448 43.6946L3.37643 42.5724L3.04935 44.7508Z" fill="white"/>
<path d="M13.6889 48.4971C13.6833 48.4751 13.6667 48.4421 13.6334 48.4091C13.6223 48.4036 13.6223 48.3926 13.6113 48.3871L12.9349 48.002L11.6432 47.2649L11.3106 49.4488C11.2829 49.6249 11.3716 49.7954 11.5268 49.8779L12.7132 50.5105C12.7187 50.494 12.7242 50.4775 12.7298 50.461C12.7464 50.406 12.7686 50.3455 12.7908 50.2905C12.8351 50.153 12.8906 50.0209 12.946 49.8834C12.9737 49.8229 12.9959 49.7679 13.0236 49.7074C13.0901 49.5699 13.1567 49.4323 13.2343 49.3003C13.262 49.2508 13.2842 49.2068 13.3119 49.1573C13.4172 48.9757 13.5336 48.7997 13.6556 48.6347C13.6944 48.5797 13.6944 48.5246 13.6889 48.4971Z" fill="white"/>
<path d="M27.9856 35.4156H27.2982V46.8139H27.9856V35.4156Z" fill="#E6B807"/>
</svg>
