<svg width="64" height="47" viewBox="0 0 64 47" fill="none" xmlns="http://www.w3.org/2000/svg">
<path d="M7.15961 45.2562C7.47066 45.0743 7.72302 44.64 7.72302 44.282C7.72302 43.924 7.47066 43.7773 7.15961 43.9592C6.84856 44.1411 6.59619 44.5754 6.59619 44.9334C6.59619 45.2914 6.84856 45.4382 7.15961 45.2562Z" fill="#575756"/>
<path d="M7.55133 43.9226L6.7561 45.2999L7.12712 45.5141L7.92235 44.1368L7.55133 43.9226Z" fill="#575756"/>
<path d="M7.55829 45.4852C7.24724 45.6671 6.99487 45.5204 6.99487 45.1624C6.99487 44.8044 7.24724 44.3701 7.55829 44.1882C7.86934 44.0062 8.1217 44.1529 8.1217 44.5109C8.1217 44.8748 7.86934 45.3091 7.55829 45.4852Z" fill="#706F6F"/>
<path d="M7.55856 45.2504C7.36488 45.3619 7.20642 45.2739 7.20642 45.045C7.20642 44.8161 7.36488 44.5461 7.55856 44.4287C7.75223 44.3114 7.91069 44.4053 7.91069 44.6341C7.91069 44.8572 7.75223 45.133 7.55856 45.2504Z" fill="#9D9D9C"/>
<path d="M7.55863 45.1213C7.42365 45.1976 7.31213 45.1389 7.31213 44.9804C7.31213 44.8278 7.42365 44.6341 7.55863 44.5578C7.69362 44.4815 7.80512 44.5402 7.80512 44.6987C7.79925 44.8513 7.69362 45.045 7.55863 45.1213Z" fill="#EDEDED"/>
<path d="M7.92818 42.5448H7.50562V45.1564H7.92818V42.5448Z" fill="#706F6F"/>
<path d="M7.96357 45.7375C8.27462 45.5556 8.52698 45.1213 8.52698 44.7633C8.52698 44.4053 8.27462 44.2585 7.96357 44.4405C7.65252 44.6224 7.40015 45.0567 7.40015 45.4147C7.40602 45.7727 7.65252 45.9136 7.96357 45.7375Z" fill="#575756"/>
<path d="M8.36383 44.4022L7.5686 45.7795L7.93963 45.9938L8.73486 44.6164L8.36383 44.4022Z" fill="#575756"/>
<path d="M8.36285 45.9663C8.0518 46.1483 7.79944 46.0015 7.79944 45.6435C7.79944 45.2855 8.0518 44.8512 8.36285 44.6693C8.6739 44.4874 8.92625 44.6341 8.92625 44.9921C8.92625 45.3501 8.6739 45.7844 8.36285 45.9663Z" fill="#706F6F"/>
<path d="M8.36265 45.7258C8.16898 45.8373 8.00464 45.7492 8.00464 45.5203C8.00464 45.2915 8.1631 45.0215 8.35677 44.9041C8.55045 44.7926 8.71479 44.8806 8.71479 45.1095C8.72065 45.3384 8.56219 45.6143 8.36265 45.7258Z" fill="#9D9D9C"/>
<path d="M8.36271 45.5966C8.22773 45.6729 8.11621 45.6142 8.11621 45.4557C8.11621 45.3032 8.22773 45.1095 8.36271 45.0332C8.4977 44.9569 8.60919 45.0156 8.60919 45.174C8.60919 45.3325 8.4977 45.5203 8.36271 45.5966Z" fill="#EDEDED"/>
<path d="M18.2811 26.4877C18.2811 25.7364 18.8093 25.4313 19.4549 25.8069C20.1063 26.1825 20.6287 27.0921 20.6287 27.8434C20.6287 28.5946 20.1005 28.8998 19.4549 28.5242C18.8035 28.1544 18.2811 27.2389 18.2811 26.4877Z" fill="white"/>
<path d="M14.0906 27.996C15.6341 27.1391 17.1483 26.3762 18.6214 25.7306C19.8245 25.2317 20.9631 24.8913 22.0077 24.7681C23.3635 24.5803 23.6275 25.0439 22.8118 26.159C22.1369 27.0452 21.2741 27.8551 20.2882 28.6122C18.909 29.5806 17.5004 30.5078 16.0508 31.394C15.1998 31.9046 14.3312 32.4094 13.4568 32.8965L11.4966 29.4984C12.371 28.9761 13.2338 28.4713 14.0906 27.996Z" fill="#DADADA"/>
<path d="M13.6567 28.9173C13.6391 28.0194 14.2612 27.6555 15.0418 28.1192C15.8048 28.5652 16.4151 29.6333 16.4268 30.5195C16.4386 31.3823 15.8165 31.7403 15.0418 31.3177C14.2671 30.8951 13.6743 29.7977 13.6567 28.9173Z" fill="#070459"/>
<path d="M14.0906 27.996L16.0508 31.3882C15.1998 31.8988 14.3312 32.4035 13.4568 32.8906L11.4966 29.4925C12.371 28.9761 13.2338 28.4714 14.0906 27.996Z" fill="#070459"/>
<path d="M11.0918 30.3963C11.0918 29.5101 11.7139 29.1521 12.4769 29.5982C13.2398 30.0383 13.8619 31.1123 13.8619 31.9985C13.8619 32.8847 13.2398 33.2427 12.4769 32.7967C11.7139 32.3565 11.0918 31.2825 11.0918 30.3963Z" fill="#EDEDED"/>
<path d="M11.3678 30.5547C11.3678 29.8446 11.8667 29.557 12.477 29.915C13.0933 30.2671 13.5862 31.1299 13.5862 31.84C13.5862 32.5501 13.0874 32.8377 12.477 32.4797C11.8667 32.1276 11.3678 31.2649 11.3678 30.5547Z" fill="#575756"/>
<path d="M17.3597 27.0862L14.4194 28.7823C14.2492 28.8821 14.0556 28.706 14.1319 28.5241L15.4171 25.5544C15.4347 25.5133 15.4641 25.484 15.4993 25.4605L18.4396 23.7644C18.6098 23.6646 18.8035 23.8407 18.7272 24.0226L17.4419 26.9923C17.4243 27.0334 17.395 27.0627 17.3597 27.0862Z" fill="#575756"/>
<path d="M17.1484 19.1513C17.1484 18.4001 17.6766 18.0949 18.3222 18.4706C18.9737 18.8462 19.496 19.7558 19.496 20.5071C19.496 21.2583 18.9678 21.5635 18.3222 21.1878C17.6708 20.8181 17.1484 19.9026 17.1484 19.1513Z" fill="white"/>
<path d="M20.7343 17.4553C19.7249 17.5903 18.6391 17.9131 17.4888 18.3943C16.0157 19.0458 14.5016 19.8087 12.958 20.6597C12.1012 21.1351 11.2385 21.6398 10.364 22.1622L12.3242 25.5544C13.1987 25.0673 14.0614 24.5684 14.9182 24.0519C16.362 23.1716 17.7764 22.2443 19.1556 21.2701C19.7307 20.8299 20.2589 20.3663 20.7343 19.885V17.4553Z" fill="#DADADA"/>
<path d="M12.5237 21.5811C12.5061 20.6832 13.1282 20.3193 13.9087 20.7829C14.6717 21.229 15.2821 22.2971 15.2938 23.1833C15.3055 24.046 14.6834 24.404 13.9087 23.9815C13.134 23.5589 12.5413 22.4614 12.5237 21.5811Z" fill="#070459"/>
<path d="M12.958 20.6597L14.9182 24.0578C14.0673 24.5683 13.1987 25.0731 12.3242 25.5602L10.364 22.168C11.2385 21.6398 12.1012 21.135 12.958 20.6597Z" fill="#070459"/>
<path d="M9.95923 23.06C9.95923 22.1738 10.5813 21.8158 11.3443 22.2619C12.1072 22.702 12.7293 23.776 12.7293 24.6622C12.7293 25.5484 12.1072 25.9064 11.3443 25.4604C10.5813 25.0202 9.95923 23.9462 9.95923 23.06Z" fill="#EDEDED"/>
<path d="M10.235 23.2185C10.235 22.5084 10.7338 22.2208 11.3442 22.5788C11.9604 22.931 12.4534 23.7937 12.4534 24.5038C12.4534 25.214 11.9546 25.5015 11.3442 25.1435C10.7338 24.7914 10.235 23.9287 10.235 23.2185Z" fill="#575756"/>
<path d="M16.2269 19.7501L13.2866 21.4462C13.1164 21.5459 12.9228 21.3699 12.999 21.1879L14.2843 18.2183C14.3019 18.1772 14.3313 18.1479 14.3665 18.1244L17.3068 16.4283C17.477 16.3285 17.6707 16.5046 17.5944 16.6865L16.3091 19.6562C16.2915 19.6972 16.2621 19.7266 16.2269 19.7501Z" fill="#575756"/>
<path d="M26.0163 27.3855L15.1471 33.6593L13.8501 13.8577L14.6072 13.4234L14.8419 13.2884L19.2495 10.7472L19.8892 12.3142L22.6534 19.1221L22.8999 19.7148L25.1535 25.2668L26.0163 27.3855Z" fill="#EDEDED"/>
<path d="M17.5123 30.0734L17.389 30.0969L17.2599 30.1145L14.6072 13.4234L14.8419 13.2885L17.5123 30.0734Z" fill="#DADADA"/>
<path d="M22.8352 22.6104L16.7524 26.1599L16.8826 26.3829L22.9653 22.8335L22.8352 22.6104Z" fill="#DADADA"/>
<path d="M20.3498 15.9686L15.4523 18.5963L15.5744 18.8239L20.4719 16.1961L20.3498 15.9686Z" fill="#DADADA"/>
<path d="M22.6534 19.1222L21.4092 19.8323L18.9032 12.9246L19.8892 12.3143L22.6534 19.1222Z" fill="#070459"/>
<path d="M25.1536 25.2669L23.7275 26.0298L21.6616 20.4368L22.8999 19.7149L25.1536 25.2669Z" fill="#070459"/>
<path d="M49.8086 5.3302L52.2031 11.2226L46.1992 14.6911L47.0326 6.9324L49.8086 5.3302Z" fill="#EDEDED"/>
<path d="M50.5365 10.0136H48.9695V6.88552L50.5365 5.88782V10.0136Z" fill="#070459"/>
<path d="M34.8373 36.1067C34.8373 35.3555 35.3655 35.0503 36.0111 35.4259C36.6625 35.8015 37.1848 36.7112 37.1848 37.4624C37.1848 38.2136 36.6566 38.5188 36.0111 38.1432C35.3655 37.7676 34.8373 36.8579 34.8373 36.1067Z" fill="white"/>
<path d="M30.6467 37.6091C32.1902 36.7522 33.7043 35.9893 35.1774 35.3437C36.3806 34.8448 37.5191 34.5044 38.5638 34.3812C39.9195 34.1934 40.1836 34.657 39.3678 35.7721C38.6929 36.6583 37.8302 37.4682 36.8442 38.2253C35.465 39.1937 34.0565 40.1209 32.6069 41.0071C31.7559 41.5177 30.8873 42.0225 30.0128 42.5096L28.0526 39.1174C28.9271 38.5892 29.7898 38.0844 30.6467 37.6091Z" fill="#080490"/>
<path d="M30.2183 38.5306C30.2007 37.6326 30.8228 37.2688 31.6033 37.7324C32.3663 38.1784 32.9766 39.2466 32.9884 40.1328C33.0001 40.9955 32.378 41.3535 31.6033 40.9309C30.8228 40.5084 30.23 39.4168 30.2183 38.5306Z" fill="#070459"/>
<path d="M30.6467 37.6091L32.6069 41.0013C31.7559 41.5119 30.8873 42.0166 30.0128 42.5037L28.0526 39.1115C28.9271 38.5892 29.7898 38.0844 30.6467 37.6091Z" fill="#070459"/>
<path d="M27.6476 40.0154C27.6476 39.1292 28.2697 38.7712 29.0326 39.2173C29.7956 39.6574 30.4177 40.7314 30.4177 41.6176C30.4177 42.5038 29.7956 42.8618 29.0326 42.4158C28.2697 41.9698 27.6476 40.8958 27.6476 40.0154Z" fill="#EDEDED"/>
<path d="M27.9236 40.1738C27.9236 39.4637 28.4224 39.1761 29.0328 39.5341C29.649 39.8862 30.142 40.749 30.142 41.4591C30.142 42.1692 29.6432 42.4568 29.0328 42.0988C28.4224 41.7408 27.9236 40.8781 27.9236 40.1738Z" fill="#575756"/>
<path d="M33.9159 36.6994L30.9756 38.3955C30.8054 38.4953 30.6117 38.3192 30.688 38.1373L31.9733 35.1676C31.9909 35.1265 32.0202 35.0972 32.0555 35.0737L34.9958 33.3776C35.166 33.2778 35.3596 33.4539 35.2833 33.6358L33.998 36.6055C33.9804 36.6466 33.9511 36.6818 33.9159 36.6994Z" fill="#575756"/>
<path d="M47.2854 36.5469C47.2854 35.7956 47.8136 35.4905 48.4592 35.8661C49.1106 36.2417 49.633 37.1513 49.633 37.9026C49.633 38.6538 49.1048 38.959 48.4592 38.5834C47.8136 38.2136 47.2854 37.2981 47.2854 36.5469Z" fill="white"/>
<path d="M43.1005 38.0551C44.644 37.1983 46.1582 36.4353 47.6313 35.7897C48.8344 35.2909 49.973 34.9505 51.0176 34.8272C52.3733 34.6394 52.6374 35.1031 51.8217 36.2182C51.1467 37.1044 50.284 37.9143 49.2981 38.6713C47.9189 39.6397 46.5103 40.567 45.0607 41.4532C44.2097 41.9638 43.3411 42.4685 42.4667 42.9556L40.5065 39.5634C41.3751 39.0352 42.2437 38.5305 43.1005 38.0551Z" fill="#080490"/>
<path d="M42.6665 38.9765C42.6489 38.0786 43.271 37.7147 44.0516 38.1784C44.8145 38.6244 45.4249 39.6925 45.4366 40.5787C45.4484 41.4415 44.8263 41.7995 44.0516 41.3769C43.2769 40.9544 42.6782 39.8569 42.6665 38.9765Z" fill="#070459"/>
<path d="M43.1005 38.0551L45.0607 41.4473C44.2097 41.9579 43.3411 42.4626 42.4667 42.9498L40.5065 39.5576C41.3751 39.0352 42.2437 38.5305 43.1005 38.0551Z" fill="#070459"/>
<path d="M40.1016 40.4555C40.1016 39.5693 40.7237 39.2113 41.4866 39.6574C42.2496 40.0975 42.8717 41.1715 42.8717 42.0578C42.8717 42.944 42.2496 43.302 41.4866 42.8559C40.7178 42.4158 40.1016 41.3417 40.1016 40.4555Z" fill="#EDEDED"/>
<path d="M40.3715 40.614C40.3715 39.9039 40.8703 39.6163 41.4807 39.9743C42.0969 40.3265 42.5899 41.1892 42.5899 41.8993C42.5899 42.6095 42.091 42.897 41.4807 42.539C40.8703 42.1869 40.3715 41.3242 40.3715 40.614Z" fill="#575756"/>
<path d="M46.3639 37.1454L43.4236 38.8416C43.2534 38.9413 43.0597 38.7653 43.136 38.5833L44.4213 35.6137C44.4389 35.5726 44.4682 35.5432 44.5034 35.5198L47.4438 33.8237C47.614 33.7239 47.8076 33.9 47.7313 34.0819L46.446 37.0515C46.4343 37.0926 46.3991 37.122 46.3639 37.1454Z" fill="#575756"/>
<path d="M34.9899 20.4838C34.9899 18.5881 36.3221 17.8193 37.9654 18.7642C39.6087 19.7149 40.9409 22.0214 40.9409 23.917C40.9409 25.8127 39.6087 26.5815 37.9654 25.6366C36.3221 24.6917 34.9899 22.3853 34.9899 20.4838Z" fill="#EDEDED"/>
<path d="M53.9759 12.3905C49.674 17.4319 44.9319 23.3066 40.0725 25.8478L11.3972 42.4039C11.3972 42.4039 10.5051 42.8793 10.3819 42.9439C7.63522 44.3583 5.19964 45.0684 2.36497 44.6634C0.868407 44.4522 0.469318 42.6739 1.3966 41.4473C1.91893 40.7548 2.34149 40.1444 2.71123 39.5927C2.99881 39.1643 3.25704 38.7828 3.5094 38.4248C3.64438 38.2312 3.7735 38.0375 3.91435 37.8614C4.61862 36.9224 5.36983 36.1712 6.67272 35.4141C6.70207 35.3906 6.73728 35.3671 6.76663 35.3495L35.8645 18.5469L52.6143 10.1779C54.1578 9.43844 55.1086 11.205 53.9759 12.3905Z" fill="#DADADA"/>
<path d="M63.9 13.3764L61.1241 14.9786L48.9872 15.4129C48.6468 15.4247 48.5177 14.9786 48.8112 14.8084C50.1669 13.4586 51.8982 12.6781 53.6941 11.9914L54.6683 12.1264L62.38 13.1769L63.9 13.3764Z" fill="#EDEDED"/>
<path d="M54.0462 0.599976L53.9347 1.70919L53.1365 9.35634L53.0074 10.5712C51.282 12.0208 48.506 13.7991 47.4202 14.069C47.2207 14.1219 47.0446 13.9223 47.1151 13.7228L51.2644 2.20218L54.0462 0.599976Z" fill="#080490"/>
<path d="M33.0297 28.5417C33.0297 29.4279 27.6127 33.4305 23.4224 35.8485C19.232 38.2665 17.8528 38.1902 17.8528 37.304C17.8528 36.4178 19.232 35.0562 23.4224 32.6382C27.6127 30.2202 33.0297 27.6555 33.0297 28.5417Z" fill="#080490"/>
<path d="M59.6508 33.8823L55.7891 36.1067L55.3841 36.3414L54.2573 36.9929L20.4819 36.2651C20.4291 36.2651 20.3939 36.2064 20.4232 36.1595C20.8106 35.508 21.5325 34.8683 22.4832 34.2345C22.5947 34.1464 22.718 34.076 22.8412 33.9997C24.9129 32.6851 27.8826 31.3646 30.7583 30.0148C30.8112 29.9913 30.8698 29.9737 30.9344 29.9913L33.5871 30.3493L37.5956 30.8951L44.3096 31.8048L45.6712 31.9867L50.243 32.6088L56.4171 33.4481H56.4229L59.6508 33.8823Z" fill="#EDEDED"/>
<path d="M7.04828 40.6491C4.77703 41.3475 3.30394 40.432 2.71118 39.5986C2.99876 39.1701 3.25699 38.7887 3.50935 38.4307C3.57978 39.1877 5.55759 40.0035 7.03067 39.6983C7.03067 40.0153 7.03654 40.3381 7.04828 40.6491Z" fill="#575756"/>
<path d="M18.281 34.4693C18.281 34.8918 17.9817 35.4083 17.6178 35.6196L8.84971 40.6492C8.48584 40.8605 8.18652 40.6903 8.18652 40.2677C8.18652 39.8452 8.48584 39.3287 8.84971 39.1174L17.6178 34.0878C17.9817 33.8707 18.281 34.0467 18.281 34.4693Z" fill="#C6C6C6"/>
<path d="M32.2726 26.3643C32.2726 26.7869 31.9733 27.3034 31.6095 27.5146L27.2372 30.0148C26.8733 30.2261 26.574 30.0559 26.574 29.6333C26.574 29.2108 26.8733 28.6943 27.2372 28.483L31.6095 25.9829C31.9792 25.7716 32.2726 25.9418 32.2726 26.3643Z" fill="#C6C6C6"/>
<path d="M27.8653 29.0757C27.8653 29.24 27.748 29.4454 27.6071 29.5275C27.4604 29.6097 27.3489 29.5452 27.3489 29.375V29.0639C27.3489 28.8996 27.4663 28.6942 27.6071 28.612C27.7538 28.5298 27.8653 28.5944 27.8653 28.7646V29.0757Z" fill="#575756"/>
<path d="M29.1858 28.3127C29.1858 28.477 29.0684 28.6825 28.9275 28.7646C28.7808 28.8468 28.6693 28.7822 28.6693 28.612V28.301C28.6693 28.1366 28.7867 27.9312 28.9275 27.8491C29.0743 27.7669 29.1858 27.8315 29.1858 28.0017V28.3127Z" fill="#575756"/>
<path d="M30.5004 27.5556C30.5004 27.72 30.383 27.9254 30.2421 28.0075C30.0954 28.0897 29.9839 28.0251 29.9839 27.8549V27.5439C29.9839 27.3796 30.1013 27.1742 30.2421 27.092C30.3888 27.0098 30.5004 27.0744 30.5004 27.2446V27.5556Z" fill="#575756"/>
<path d="M31.8148 26.7985C31.8148 26.9629 31.6974 27.1683 31.5566 27.2505C31.4098 27.3326 31.2983 27.2681 31.2983 27.0979V26.7868C31.2983 26.6225 31.4157 26.4171 31.5566 26.3349C31.7033 26.2527 31.8148 26.3173 31.8148 26.4875V26.7985Z" fill="#575756"/>
<path d="M9.44859 39.6867C9.44859 39.8511 9.33121 40.0565 9.19036 40.1386C9.04364 40.2208 8.93213 40.1562 8.93213 39.986V39.675C8.93213 39.5107 9.04951 39.3053 9.19036 39.2231C9.33708 39.1409 9.44859 39.2055 9.44859 39.3757V39.6867Z" fill="#575756"/>
<path d="M10.7632 38.9237C10.7632 39.088 10.6458 39.2934 10.5049 39.3756C10.3582 39.4577 10.2467 39.3932 10.2467 39.223V38.9119C10.2467 38.7476 10.3641 38.5422 10.5049 38.46C10.6517 38.3779 10.7632 38.4424 10.7632 38.6126V38.9237Z" fill="#575756"/>
<path d="M12.0776 38.1666C12.0776 38.3309 11.9602 38.5363 11.8194 38.6185C11.6727 38.7007 11.5612 38.6361 11.5612 38.4659V38.1549C11.5612 37.9905 11.6785 37.7851 11.8194 37.7029C11.9661 37.6208 12.0776 37.6853 12.0776 37.8555V38.1666Z" fill="#575756"/>
<path d="M13.3922 37.4095C13.3922 37.5738 13.2748 37.7793 13.134 37.8614C12.9872 37.9436 12.8757 37.879 12.8757 37.7088V37.3978C12.8757 37.2334 12.9931 37.028 13.134 36.9459C13.2807 36.8637 13.3922 36.9283 13.3922 37.0985V37.4095Z" fill="#575756"/>
<path d="M14.7129 36.6466C14.7129 36.8109 14.5955 37.0163 14.4546 37.0985C14.3079 37.1806 14.1964 37.1161 14.1964 36.9459V36.6348C14.1964 36.4705 14.3138 36.2651 14.4546 36.1829C14.6014 36.1008 14.7129 36.1653 14.7129 36.3355V36.6466Z" fill="#575756"/>
<path d="M16.0273 35.8894C16.0273 36.0538 15.9099 36.2592 15.7691 36.3413C15.6224 36.4235 15.5109 36.3589 15.5109 36.1887V35.8777C15.5109 35.7134 15.6282 35.508 15.7691 35.4258C15.9158 35.3436 16.0273 35.4082 16.0273 35.5784V35.8894Z" fill="#575756"/>
<path d="M17.3421 35.1266C17.3421 35.2909 17.2248 35.4963 17.0839 35.5785C16.9372 35.6606 16.8257 35.5961 16.8257 35.4259V35.1148C16.8257 34.9505 16.9431 34.7451 17.0839 34.6629C17.2306 34.5807 17.3421 34.6453 17.3421 34.8155V35.1266Z" fill="#575756"/>
<path d="M14.0907 38.6068C13.9498 38.6068 13.8325 38.5598 13.7503 38.4659C13.6857 38.3896 13.6094 38.2429 13.6505 37.9905C13.721 37.5152 13.721 36.9635 13.6505 36.3883C13.5508 35.5784 13.9205 35.3613 14.39 35.0796C14.5074 35.0092 14.613 34.9739 14.7128 34.9739C14.8771 34.9739 15.1001 35.062 15.2234 35.4963C15.376 36.0773 15.4112 36.6877 15.3231 37.21C15.2527 37.6678 15.194 38.0668 14.4898 38.4894C14.3607 38.5657 14.2198 38.6068 14.0907 38.6068ZM14.7187 35.1441C14.6541 35.1441 14.5719 35.1676 14.4956 35.2204C14.0203 35.5021 13.7444 35.6723 13.8266 36.3649C13.897 36.9518 13.897 37.5269 13.8266 38.014C13.8031 38.1607 13.8266 38.2781 13.8853 38.3485C13.944 38.419 14.032 38.4307 14.0907 38.4307C14.1846 38.4307 14.2961 38.3955 14.4017 38.3368C15.0356 37.9612 15.0884 37.6325 15.153 37.1806C15.2351 36.6759 15.2058 36.0949 15.0591 35.5374C14.9886 35.2733 14.8712 35.1441 14.7187 35.1441Z" fill="#706F6F"/>
<path d="M53.9346 1.70923L53.1364 9.35637L51.6868 10.2132C51.5342 10.2895 51.3582 10.1663 51.3875 9.99608L52.573 2.53674C52.5848 2.47805 52.6259 2.42523 52.6787 2.39002L53.9346 1.70923Z" fill="#070459"/>
<path d="M62.3797 13.1711L61.0827 13.9399L52.8369 13.1006L54.668 12.1264L62.3797 13.1711Z" fill="#070459"/>
<path d="M55.7834 36.1066L55.3785 36.3414L47.1034 35.8132L33.0533 34.9094L22.4775 34.2344C22.589 34.1464 22.7123 34.076 22.8355 33.9997L32.9652 34.6394L33.3878 34.6746L47.0388 35.5491L47.4261 35.5725L55.7834 36.1066Z" fill="#DADADA"/>
<path d="M37.4656 31.7362L32.9066 34.6721L33.0464 34.8892L37.6054 31.9533L37.4656 31.7362Z" fill="#DADADA"/>
<path d="M50.1488 33.2618L46.9563 35.6172L47.1096 35.825L50.3021 33.4696L50.1488 33.2618Z" fill="#DADADA"/>
<path d="M56.411 33.4422L54.9908 34.258L44.0336 32.9257L45.6592 31.9867L56.411 33.4422Z" fill="#070459"/>
<path d="M44.2919 31.7989L42.5958 32.6968L31.8147 31.3587L33.5695 30.3492L44.2919 31.7989Z" fill="#070459"/>
<path d="M38.3057 24.363C38.2236 24.0755 38.1708 23.7761 38.1708 23.4651C38.1708 23.2831 38.2001 23.113 38.2236 22.9428L36.9618 23.6705V22.9369L34.7786 25.6659L36.9618 25.8772V25.1436L38.3057 24.363Z" fill="#080490"/>
<path d="M40.3777 24.052V24.5215C40.542 24.3865 40.6946 24.1518 40.8237 23.8348C40.6829 23.8877 40.5361 23.964 40.3777 24.052Z" fill="#0597A6"/>
<path d="M40.3777 23.8759C40.5538 23.7761 40.7298 23.6939 40.9 23.6352C40.9881 23.3887 41.0585 23.107 41.1113 22.8136C40.8707 22.9251 40.6242 23.0542 40.3777 23.1951V23.8759Z" fill="#0597A6"/>
<path d="M41.152 21.1117C40.8996 21.2878 40.6414 21.4521 40.3832 21.6047V22.2268L41.2048 21.7514C41.1989 21.5284 41.1813 21.3112 41.152 21.1117Z" fill="#0597A6"/>
<path d="M40.3777 23.025C40.6359 22.8782 40.8942 22.7491 41.1407 22.6376C41.1759 22.4029 41.1935 22.1622 41.1993 21.9333L40.3777 22.4087V23.025Z" fill="#0597A6"/>
<path d="M40.9235 20.3781C40.7474 20.5131 40.5655 20.6363 40.3777 20.7479V21.4286C40.6242 21.2819 40.8766 21.1235 41.123 20.9533C41.0761 20.7244 41.0057 20.5307 40.9235 20.3781Z" fill="#0597A6"/>
<path d="M40.9759 20.155C41.0464 20.0963 41.1109 20.0435 41.1696 19.9848C41.0464 19.9437 40.9055 19.9378 40.7646 19.9613C40.8409 20.0083 40.9114 20.0728 40.9759 20.155Z" fill="#0597A6"/>
<path d="M40.3777 20.1022V20.5717C40.5361 20.4778 40.6946 20.3663 40.8413 20.2548C40.7063 20.0846 40.5538 20.0317 40.3777 20.1022Z" fill="#0597A6"/>
<path d="M41.2694 22.7432C41.2224 23.0367 41.152 23.3184 41.064 23.5825C41.1344 23.559 41.2048 23.5414 41.2752 23.5238C41.4513 23.2303 41.5922 22.9017 41.6978 22.5671C41.5628 22.62 41.4161 22.6786 41.2694 22.7432Z" fill="#0597A6"/>
<path d="M39.4384 24.7269C39.5205 24.7504 39.6027 24.768 39.6849 24.768C39.7377 24.768 39.7905 24.7622 39.8433 24.7563C39.767 24.7152 39.6966 24.6507 39.632 24.5626C39.5675 24.6154 39.5029 24.6683 39.4384 24.7269Z" fill="#0597A6"/>
<path d="M39.3385 21.9685C39.3854 21.6692 39.4558 21.3934 39.5439 21.1293C39.4735 21.1527 39.3972 21.1704 39.3326 21.188C39.1565 21.4814 39.0098 21.8101 38.91 22.1446C39.0509 22.0918 39.1976 22.0331 39.3385 21.9685Z" fill="#0597A6"/>
<path d="M39.4973 21.8981C39.7379 21.7866 39.9844 21.6575 40.2309 21.5166V20.83C40.049 20.9297 39.8788 21.0119 39.7086 21.0706C39.6206 21.3229 39.5501 21.6105 39.4973 21.8981Z" fill="#0597A6"/>
<path d="M39.773 20.5892C39.6615 20.7125 39.5558 20.8475 39.4561 20.9942C39.5089 20.9824 39.5617 20.9648 39.6145 20.9472C39.6615 20.8181 39.7143 20.6949 39.773 20.5892Z" fill="#0597A6"/>
<path d="M39.7848 20.8828C39.9315 20.8241 40.0782 20.7478 40.2308 20.6657V20.202C40.0724 20.3311 39.9139 20.5718 39.7848 20.8828Z" fill="#0597A6"/>
<path d="M40.2307 24.6095V24.1341C40.0723 24.228 39.9138 24.3336 39.7671 24.451C39.9021 24.6329 40.0605 24.6858 40.2307 24.6095Z" fill="#0597A6"/>
<path d="M39.4619 23.6C39.7142 23.4239 39.9725 23.2596 40.2307 23.107V22.4849L39.4091 22.9603C39.4091 23.1892 39.4267 23.4005 39.4619 23.6Z" fill="#0597A6"/>
<path d="M40.2307 21.6927C39.9725 21.8394 39.7142 21.9685 39.4677 22.08C39.4325 22.3207 39.4149 22.5554 39.4091 22.7902L40.2307 22.3148V21.6927Z" fill="#0597A6"/>
<path d="M40.2309 23.9639V23.2831C39.9786 23.4299 39.7321 23.5883 39.4856 23.7585C39.5325 23.9874 39.603 24.187 39.6851 24.3337C39.8612 24.1987 40.0431 24.0754 40.2309 23.9639Z" fill="#0597A6"/>
<path d="M41.4984 19.8675C41.4808 19.8851 41.4632 19.9027 41.4456 19.9262C41.6099 20.0318 41.7507 20.1961 41.8505 20.4133C41.9092 20.3663 41.9679 20.3135 42.0266 20.2666C41.8916 20.067 41.7097 19.9321 41.4984 19.8675Z" fill="#0597A6"/>
<path d="M41.293 21.0119C41.3282 21.2173 41.3458 21.4344 41.3517 21.6692L41.8857 21.3581C41.8799 21.094 41.8446 20.8534 41.7683 20.6539C41.6099 20.7771 41.4514 20.9004 41.293 21.0119Z" fill="#0597A6"/>
<path d="M38.7461 22.2033C38.8458 21.8629 38.9867 21.5225 39.1569 21.2173C39.1569 21.2173 39.1569 21.2173 39.151 21.2173C38.928 21.5342 38.7402 21.8922 38.6052 22.2443C38.6522 22.2326 38.6991 22.2209 38.7461 22.2033Z" fill="#0597A6"/>
<path d="M41.7155 20.513C41.6158 20.3017 41.4808 20.1433 41.3165 20.0494C41.2343 20.1257 41.1463 20.202 41.0582 20.2783C41.1463 20.4309 41.2167 20.6245 41.2636 20.8593C41.4162 20.7419 41.5688 20.6304 41.7155 20.513Z" fill="#0597A6"/>
<path d="M38.7049 24.1693C38.6286 23.958 38.5817 23.7115 38.5758 23.4415L38.3469 23.5706C38.3528 23.8641 38.4115 24.1164 38.5113 24.3277C38.5817 24.2749 38.6462 24.2221 38.7049 24.1693Z" fill="#0597A6"/>
<path d="M42.0324 21.4461C42.0266 21.7278 41.9855 22.0271 41.915 22.3323C41.9679 22.3147 42.0207 22.2971 42.0735 22.2854C42.185 21.9567 42.2437 21.6281 42.2613 21.3229L42.0324 21.4461Z" fill="#0597A6"/>
<path d="M41.9033 20.5482C41.9796 20.7595 42.0266 21.006 42.0324 21.276L42.2613 21.1469C42.2555 20.8475 42.1968 20.5952 42.0911 20.3898C42.0266 20.4367 41.9679 20.4895 41.9033 20.5482Z" fill="#0597A6"/>
<path d="M41.8681 22.5085C41.7683 22.8489 41.6275 23.1834 41.4573 23.4945H41.4631C41.6862 23.1775 41.874 22.8195 42.009 22.4674C41.962 22.4791 41.9151 22.4909 41.8681 22.5085Z" fill="#0597A6"/>
<path d="M38.6992 22.3794C38.6463 22.397 38.5935 22.4146 38.5407 22.4263C38.4292 22.7609 38.3646 23.0837 38.3529 23.3947L38.5759 23.2656C38.5818 22.9839 38.6229 22.6846 38.6992 22.3794Z" fill="#0597A6"/>
<path d="M39.3213 23.6999C39.2861 23.5004 39.2685 23.2832 39.2626 23.0485L38.7285 23.3595C38.7344 23.6236 38.7696 23.8584 38.84 24.0638C38.9985 23.9347 39.1569 23.8173 39.3213 23.6999Z" fill="#0597A6"/>
<path d="M38.7635 24.3043C38.7048 24.3513 38.6461 24.4041 38.5874 24.451C38.7165 24.6447 38.8984 24.7856 39.1097 24.8443C39.1273 24.8267 39.1449 24.8032 39.1684 24.7856C39.0041 24.6799 38.8632 24.5156 38.7635 24.3043Z" fill="#0597A6"/>
<path d="M38.8984 24.1987C38.9982 24.41 39.1332 24.5685 39.2975 24.6624C39.3797 24.5861 39.4677 24.5098 39.5557 24.4335C39.4677 24.2809 39.3973 24.0814 39.3503 23.8525C39.1919 23.9699 39.0393 24.0814 38.8984 24.1987Z" fill="#0597A6"/>
<path d="M38.8576 22.3265C38.7813 22.6199 38.7344 22.9075 38.7285 23.1833L39.2626 22.8781C39.2626 22.6375 39.2802 22.391 39.3154 22.1504C39.1569 22.2149 39.0044 22.2736 38.8576 22.3265Z" fill="#0597A6"/>
<path d="M41.7507 22.3853C41.827 22.0918 41.8681 21.8101 41.8799 21.5343L41.3458 21.8395C41.3458 22.0801 41.3282 22.3207 41.293 22.5614C41.4514 22.4968 41.604 22.4381 41.7507 22.3853Z" fill="#0597A6"/>
<path d="M40.9998 23.7644C40.947 23.8935 40.8941 24.0167 40.8354 24.1224C40.947 23.9991 41.0585 23.8641 41.1582 23.7115C41.1054 23.7292 41.0526 23.7468 40.9998 23.7644Z" fill="#0597A6"/>
</svg>
